# Blender v2.70 (sub 5) OBJ File: ''
# www.blender.org
o Cylinder
v 0.000000 0.000000 -0.083435
v 0.000000 1.000000 -0.083435
v 0.016277 0.000000 -0.081832
v 0.016277 1.000000 -0.081832
v 0.031929 0.000000 -0.077084
v 0.031929 1.000000 -0.077084
v 0.046354 0.000000 -0.069374
v 0.046354 1.000000 -0.069374
v 0.058998 0.000000 -0.058998
v 0.058998 1.000000 -0.058998
v 0.069374 0.000000 -0.046354
v 0.069374 1.000000 -0.046354
v 0.077084 0.000000 -0.031929
v 0.077084 1.000000 -0.031929
v 0.081832 0.000000 -0.016277
v 0.081832 1.000000 -0.016277
v 0.083435 0.000000 -0.000000
v 0.083435 1.000000 -0.000000
v 0.081832 0.000000 0.016277
v 0.081832 1.000000 0.016277
v 0.077084 0.000000 0.031929
v 0.077084 1.000000 0.031929
v 0.069374 0.000000 0.046354
v 0.069374 1.000000 0.046354
v 0.058998 0.000000 0.058998
v 0.058998 1.000000 0.058998
v 0.046354 0.000000 0.069374
v 0.046354 1.000000 0.069374
v 0.031929 0.000000 0.077084
v 0.031929 1.000000 0.077084
v 0.016277 0.000000 0.081832
v 0.016277 1.000000 0.081832
v -0.000000 0.000000 0.083435
v -0.000000 1.000000 0.083435
v -0.016277 0.000000 0.081832
v -0.016277 1.000000 0.081832
v -0.031929 0.000000 0.077084
v -0.031929 1.000000 0.077084
v -0.046354 0.000000 0.069374
v -0.046354 1.000000 0.069374
v -0.058998 0.000000 0.058998
v -0.058998 1.000000 0.058998
v -0.069374 0.000000 0.046354
v -0.069374 1.000000 0.046354
v -0.077084 0.000000 0.031929
v -0.077084 1.000000 0.031929
v -0.081832 0.000000 0.016277
v -0.081832 1.000000 0.016277
v -0.083435 0.000000 -0.000000
v -0.083435 1.000000 -0.000000
v -0.081832 0.000000 -0.016278
v -0.081832 1.000000 -0.016278
v -0.077084 0.000000 -0.031929
v -0.077084 1.000000 -0.031929
v -0.069374 0.000000 -0.046354
v -0.069374 1.000000 -0.046354
v -0.058998 0.000000 -0.058998
v -0.058998 1.000000 -0.058998
v -0.046354 0.000000 -0.069374
v -0.046354 1.000000 -0.069374
v -0.031929 0.000000 -0.077084
v -0.031929 1.000000 -0.077084
v -0.016277 0.000000 -0.081832
v -0.016277 1.000000 -0.081832
v 0.000000 1.015802 -0.072919
v 0.014226 1.015802 -0.071518
v 0.027905 1.015802 -0.067368
v 0.040511 1.015802 -0.060630
v 0.051561 1.015802 -0.051561
v 0.060630 1.015802 -0.040511
v 0.067368 1.015802 -0.027905
v 0.071518 1.015802 -0.014226
v 0.072919 1.015802 -0.000000
v 0.071518 1.015802 0.014226
v 0.067368 1.015802 0.027905
v 0.060630 1.015802 0.040511
v 0.051561 1.015802 0.051561
v 0.040511 1.015802 0.060630
v 0.027905 1.015802 0.067368
v 0.014226 1.015802 0.071518
v -0.000000 1.015802 0.072919
v -0.014226 1.015802 0.071518
v -0.027905 1.015802 0.067368
v -0.040511 1.015802 0.060630
v -0.051561 1.015802 0.051561
v -0.060630 1.015802 0.040511
v -0.067368 1.015802 0.027905
v -0.071518 1.015802 0.014226
v -0.072919 1.015802 -0.000000
v -0.071518 1.015802 -0.014226
v -0.067368 1.015802 -0.027905
v -0.060630 1.015802 -0.040512
v -0.051561 1.015802 -0.051561
v -0.040511 1.015802 -0.060630
v -0.027905 1.015802 -0.067368
v -0.014226 1.015802 -0.071518
v 0.000000 1.029589 -0.061942
v 0.012084 1.029589 -0.060751
v 0.023704 1.029589 -0.057227
v 0.034413 1.029589 -0.051503
v 0.043799 1.029589 -0.043799
v 0.051503 1.029589 -0.034413
v 0.057227 1.029589 -0.023704
v 0.060751 1.029589 -0.012084
v 0.061942 1.029589 -0.000000
v 0.060751 1.029589 0.012084
v 0.057227 1.029589 0.023704
v 0.051503 1.029589 0.034413
v 0.043799 1.029589 0.043799
v 0.034413 1.029589 0.051503
v 0.023704 1.029589 0.057227
v 0.012084 1.029589 0.060751
v -0.000000 1.029589 0.061942
v -0.012084 1.029589 0.060751
v -0.023704 1.029589 0.057227
v -0.034413 1.029589 0.051503
v -0.043799 1.029589 0.043799
v -0.051503 1.029589 0.034413
v -0.057227 1.029589 0.023704
v -0.060751 1.029589 0.012084
v -0.061942 1.029589 -0.000000
v -0.060751 1.029589 -0.012084
v -0.057227 1.029589 -0.023704
v -0.051503 1.029589 -0.034413
v -0.043799 1.029589 -0.043799
v -0.034413 1.029589 -0.051503
v -0.023704 1.029589 -0.057227
v -0.012084 1.029589 -0.060751
v 0.000000 1.040604 -0.044159
v 0.008615 1.040604 -0.043311
v 0.016899 1.040604 -0.040798
v 0.024534 1.040604 -0.036717
v 0.031225 1.040604 -0.031225
v 0.036717 1.040604 -0.024534
v 0.040798 1.040604 -0.016899
v 0.043311 1.040604 -0.008615
v 0.044159 1.040604 -0.000000
v 0.043311 1.040604 0.008615
v 0.040798 1.040604 0.016899
v 0.036717 1.040604 0.024534
v 0.031225 1.040604 0.031225
v 0.024534 1.040604 0.036717
v 0.016899 1.040604 0.040798
v 0.008615 1.040604 0.043311
v -0.000000 1.040604 0.044159
v -0.008615 1.040604 0.043311
v -0.016899 1.040604 0.040798
v -0.024534 1.040604 0.036717
v -0.031225 1.040604 0.031225
v -0.036717 1.040604 0.024534
v -0.040798 1.040604 0.016899
v -0.043311 1.040604 0.008615
v -0.044159 1.040604 -0.000000
v -0.043311 1.040604 -0.008615
v -0.040798 1.040604 -0.016899
v -0.036717 1.040604 -0.024534
v -0.031225 1.040604 -0.031225
v -0.024533 1.040604 -0.036717
v -0.016899 1.040604 -0.040798
v -0.008615 1.040604 -0.043311
v 0.000000 1.049804 -0.000000
vn 0.098000 0.000000 -0.995200
vn 0.290300 0.000000 -0.956900
vn 0.471400 0.000000 -0.881900
vn 0.634400 0.000000 -0.773000
vn 0.773000 0.000000 -0.634400
vn 0.881900 0.000000 -0.471400
vn 0.956900 0.000000 -0.290300
vn 0.995200 0.000000 -0.098000
vn 0.995200 0.000000 0.098000
vn 0.956900 0.000000 0.290300
vn 0.881900 0.000000 0.471400
vn 0.773000 0.000000 0.634400
vn 0.634400 0.000000 0.773000
vn 0.471400 0.000000 0.881900
vn 0.290300 0.000000 0.956900
vn 0.098000 0.000000 0.995200
vn -0.098000 0.000000 0.995200
vn -0.290300 0.000000 0.956900
vn -0.471400 0.000000 0.881900
vn -0.634400 0.000000 0.773000
vn -0.773000 0.000000 0.634400
vn -0.881900 0.000000 0.471400
vn -0.956900 0.000000 0.290300
vn -0.995200 0.000000 0.098000
vn -0.995200 0.000000 -0.098000
vn -0.956900 0.000000 -0.290300
vn -0.881900 0.000000 -0.471400
vn -0.773000 0.000000 -0.634400
vn -0.634400 0.000000 -0.773000
vn -0.471400 0.000000 -0.881900
vn -0.797800 0.552200 0.242000
vn -0.098000 0.000000 -0.995200
vn -0.290300 0.000000 -0.956900
vn 0.000000 -1.000000 0.000000
vn -0.605900 0.621000 -0.497200
vn 0.644500 0.552200 0.528900
vn -0.797800 0.552200 -0.242000
vn 0.528900 0.552200 -0.644500
vn 0.242000 0.552200 0.797800
vn -0.528900 0.552200 -0.644500
vn -0.242000 0.552200 0.797800
vn 0.797800 0.552200 -0.242000
vn -0.081700 0.552200 -0.829700
vn -0.644500 0.552200 0.528900
vn 0.797800 0.552200 0.242000
vn -0.829700 0.552200 0.081700
vn 0.242000 0.552200 -0.797800
vn 0.528900 0.552200 0.644500
vn -0.735300 0.552200 -0.393000
vn 0.644500 0.552200 -0.528900
vn 0.081700 0.552200 0.829700
vn -0.393000 0.552200 -0.735300
vn -0.393000 0.552200 0.735300
vn 0.081700 0.552200 -0.829700
vn 0.829700 0.552200 -0.081700
vn -0.735300 0.552200 0.393000
vn 0.735300 0.552200 0.393000
vn -0.829700 0.552200 -0.081700
vn 0.393000 0.552200 -0.735300
vn 0.393000 0.552200 0.735300
vn -0.644500 0.552200 -0.528900
vn -0.081700 0.552200 0.829700
vn 0.735300 0.552200 -0.393000
vn -0.242000 0.552200 -0.797800
vn -0.528900 0.552200 0.644500
vn 0.829700 0.552200 0.081700
vn -0.249100 0.849000 -0.466000
vn -0.076800 0.621000 0.780000
vn 0.691200 0.621000 -0.369500
vn -0.750000 0.621000 -0.227500
vn 0.497200 0.621000 -0.605900
vn 0.227500 0.621000 0.750000
vn -0.780000 0.621000 0.076800
vn 0.227500 0.621000 -0.750000
vn 0.497200 0.621000 0.605900
vn -0.691200 0.621000 0.369500
vn 0.691200 0.621000 0.369500
vn -0.227500 0.621000 -0.750000
vn -0.497200 0.621000 0.605900
vn 0.780000 0.621000 0.076800
vn -0.497200 0.621000 -0.605900
vn -0.227500 0.621000 0.750000
vn 0.750000 0.621000 -0.227500
vn -0.691200 0.621000 -0.369500
vn 0.605900 0.621000 -0.497200
vn 0.076800 0.621000 0.780000
vn -0.780000 0.621000 -0.076800
vn 0.369500 0.621000 -0.691200
vn 0.369500 0.621000 0.691200
vn -0.750000 0.621000 0.227500
vn 0.076800 0.621000 -0.780000
vn 0.605900 0.621000 0.497200
vn -0.076800 0.621000 -0.780000
vn -0.605900 0.621000 0.497200
vn 0.750000 0.621000 0.227500
vn -0.369500 0.621000 -0.691200
vn -0.369500 0.621000 0.691200
vn 0.780000 0.621000 -0.076800
vn -0.249100 0.849000 0.466000
vn 0.525900 0.849000 -0.051800
vn -0.408500 0.849000 -0.335200
vn -0.051800 0.849000 0.525900
vn 0.466000 0.849000 -0.249100
vn -0.505700 0.849000 -0.153400
vn 0.335200 0.849000 -0.408500
vn 0.153400 0.849000 0.505700
vn -0.525900 0.849000 0.051800
vn 0.153400 0.849000 -0.505700
vn 0.335200 0.849000 0.408500
vn -0.466000 0.849000 0.249100
vn 0.466000 0.849000 0.249100
vn -0.153400 0.849000 -0.505700
vn -0.335200 0.849000 0.408500
vn 0.525900 0.849000 0.051800
vn -0.335200 0.849000 -0.408500
vn -0.153400 0.849000 0.505700
vn 0.505700 0.849000 -0.153400
vn -0.466000 0.849000 -0.249100
vn 0.408500 0.849000 -0.335200
vn 0.051800 0.849000 0.525900
vn -0.525900 0.849000 -0.051800
vn 0.249100 0.849000 -0.466000
vn 0.249100 0.849000 0.466000
vn -0.505700 0.849000 0.153400
vn 0.051800 0.849000 -0.525900
vn 0.408500 0.849000 0.335200
vn -0.051800 0.849000 -0.525900
vn -0.408500 0.849000 0.335200
vn 0.505700 0.849000 0.153400
vn -0.020100 0.978800 -0.203900
vn -0.158400 0.978800 0.130000
vn 0.196100 0.978800 0.059500
vn -0.096600 0.978800 -0.180700
vn -0.096600 0.978800 0.180700
vn 0.203900 0.978800 -0.020100
vn -0.158400 0.978800 -0.130000
vn -0.020100 0.978800 0.203900
vn 0.180700 0.978800 -0.096600
vn -0.196100 0.978800 -0.059500
vn 0.130000 0.978800 -0.158400
vn 0.059500 0.978800 0.196100
vn -0.203900 0.978800 0.020100
vn 0.059500 0.978800 -0.196100
vn 0.130000 0.978800 0.158400
vn -0.180700 0.978800 0.096600
vn 0.180700 0.978800 0.096600
vn -0.059500 0.978800 -0.196100
vn -0.130000 0.978800 0.158400
vn 0.203900 0.978800 0.020100
vn -0.130000 0.978800 -0.158400
vn -0.059500 0.978800 0.196100
vn 0.196100 0.978800 -0.059500
vn -0.180700 0.978800 -0.096600
vn 0.158400 0.978800 -0.130000
vn 0.020100 0.978800 0.203900
vn -0.203900 0.978800 -0.020100
vn 0.096600 0.978800 -0.180700
vn 0.096600 0.978800 0.180700
vn -0.196100 0.978800 0.059500
vn 0.020100 0.978800 -0.203900
vn 0.158400 0.978800 0.130000
s off
f 2//1 4//1 3//1
f 4//2 6//2 5//2
f 6//3 8//3 7//3
f 8//4 10//4 9//4
f 10//5 12//5 11//5
f 12//6 14//6 13//6
f 14//7 16//7 15//7
f 16//8 18//8 17//8
f 18//9 20//9 19//9
f 20//10 22//10 21//10
f 22//11 24//11 23//11
f 24//12 26//12 25//12
f 26//13 28//13 27//13
f 28//14 30//14 29//14
f 30//15 32//15 31//15
f 32//16 34//16 33//16
f 34//17 36//17 35//17
f 36//18 38//18 37//18
f 38//19 40//19 39//19
f 40//20 42//20 41//20
f 42//21 44//21 43//21
f 44//22 46//22 45//22
f 46//23 48//23 47//23
f 48//24 50//24 49//24
f 50//25 52//25 51//25
f 52//26 54//26 53//26
f 54//27 56//27 55//27
f 56//28 58//28 57//28
f 58//29 60//29 59//29
f 60//30 62//30 61//30
f 46//31 87//31 88//31
f 64//32 2//32 1//32
f 62//33 64//33 63//33
f 53//34 55//34 63//34
f 93//35 92//35 124//35
f 24//36 76//36 77//36
f 52//37 90//37 91//37
f 8//38 68//38 69//38
f 30//39 79//39 80//39
f 60//40 58//40 93//40
f 36//41 82//41 83//41
f 16//42 14//42 71//42
f 64//43 96//43 65//43
f 44//44 42//44 85//44
f 20//45 74//45 75//45
f 48//46 88//46 89//46
f 6//47 4//47 66//47
f 26//48 77//48 78//48
f 54//49 91//49 92//49
f 12//50 10//50 69//50
f 34//51 32//51 80//51
f 60//52 94//52 95//52
f 38//53 83//53 84//53
f 4//54 2//54 65//54
f 16//55 72//55 73//55
f 44//56 86//56 87//56
f 24//57 22//57 75//57
f 52//58 50//58 89//58
f 8//59 6//59 67//59
f 28//60 78//60 79//60
f 58//61 56//61 92//61
f 34//62 81//62 82//62
f 12//63 70//63 71//63
f 64//64 62//64 95//64
f 42//65 40//65 84//65
f 18//66 73//66 74//66
f 127//67 126//67 158//67
f 81//68 113//68 114//68
f 70//69 102//69 103//69
f 90//70 122//70 123//70
f 68//71 100//71 101//71
f 79//72 111//72 112//72
f 89//73 88//73 120//73
f 66//74 98//74 99//74
f 77//75 109//75 110//75
f 86//76 118//76 119//76
f 76//77 75//77 107//77
f 95//78 127//78 128//78
f 85//79 84//79 116//79
f 73//80 105//80 106//80
f 93//81 125//81 126//81
f 83//82 82//82 114//82
f 72//83 71//83 103//83
f 91//84 123//84 124//84
f 70//85 69//85 101//85
f 81//86 80//86 112//86
f 89//87 121//87 122//87
f 67//88 99//88 100//88
f 79//89 78//89 110//89
f 88//90 87//90 119//90
f 65//91 97//91 98//91
f 76//92 108//92 109//92
f 65//93 96//93 128//93
f 86//94 85//94 117//94
f 75//95 74//95 106//95
f 94//96 126//96 127//96
f 84//97 83//97 115//97
f 72//98 104//98 105//98
f 115//99 147//99 148//99
f 104//100 136//100 137//100
f 124//101 156//101 157//101
f 114//102 113//102 145//102
f 102//103 134//103 135//103
f 122//104 154//104 155//104
f 100//105 132//105 133//105
f 112//106 111//106 143//106
f 120//107 152//107 153//107
f 98//108 130//108 131//108
f 110//109 109//109 141//109
f 118//110 150//110 151//110
f 107//111 139//111 140//111
f 127//112 159//112 160//112
f 116//113 148//113 149//113
f 106//114 105//114 137//114
f 126//115 125//115 157//115
f 114//116 146//116 147//116
f 103//117 135//117 136//117
f 124//118 123//118 155//118
f 102//119 101//119 133//119
f 112//120 144//120 145//120
f 122//121 121//121 153//121
f 100//122 99//122 131//122
f 110//123 142//123 143//123
f 119//124 151//124 152//124
f 98//125 97//125 129//125
f 108//126 140//126 141//126
f 128//127 160//127 129//127
f 117//128 149//128 150//128
f 107//129 106//129 138//129
f 129//130 160//130 161//130
f 150//131 149//131 161//131
f 139//132 138//132 161//132
f 159//133 158//133 161//133
f 148//134 147//134 161//134
f 137//135 136//135 161//135
f 157//136 156//136 161//136
f 146//137 145//137 161//137
f 135//138 134//138 161//138
f 155//139 154//139 161//139
f 133//140 132//140 161//140
f 144//141 143//141 161//141
f 153//142 152//142 161//142
f 131//143 130//143 161//143
f 142//144 141//144 161//144
f 151//145 150//145 161//145
f 140//146 139//146 161//146
f 160//147 159//147 161//147
f 149//148 148//148 161//148
f 138//149 137//149 161//149
f 158//150 157//150 161//150
f 147//151 146//151 161//151
f 136//152 135//152 161//152
f 156//153 155//153 161//153
f 134//154 133//154 161//154
f 145//155 144//155 161//155
f 154//156 153//156 161//156
f 132//157 131//157 161//157
f 143//158 142//158 161//158
f 152//159 151//159 161//159
f 130//160 129//160 161//160
f 141//161 140//161 161//161
f 1//1 2//1 3//1
f 3//2 4//2 5//2
f 5//3 6//3 7//3
f 7//4 8//4 9//4
f 9//5 10//5 11//5
f 11//6 12//6 13//6
f 13//7 14//7 15//7
f 15//8 16//8 17//8
f 17//9 18//9 19//9
f 19//10 20//10 21//10
f 21//11 22//11 23//11
f 23//12 24//12 25//12
f 25//13 26//13 27//13
f 27//14 28//14 29//14
f 29//15 30//15 31//15
f 31//16 32//16 33//16
f 33//17 34//17 35//17
f 35//18 36//18 37//18
f 37//19 38//19 39//19
f 39//20 40//20 41//20
f 41//21 42//21 43//21
f 43//22 44//22 45//22
f 45//23 46//23 47//23
f 47//24 48//24 49//24
f 49//25 50//25 51//25
f 51//26 52//26 53//26
f 53//27 54//27 55//27
f 55//28 56//28 57//28
f 57//29 58//29 59//29
f 59//30 60//30 61//30
f 48//31 46//31 88//31
f 63//32 64//32 1//32
f 61//33 62//33 63//33
f 63//34 1//34 3//34
f 7//34 63//34 5//34
f 11//34 13//34 9//34
f 13//34 31//34 53//34
f 19//34 13//34 17//34
f 23//34 13//34 21//34
f 27//34 31//34 25//34
f 27//34 29//34 31//34
f 45//34 33//34 37//34
f 33//34 35//34 37//34
f 43//34 45//34 41//34
f 47//34 33//34 45//34
f 51//34 53//34 49//34
f 53//34 47//34 49//34
f 59//34 63//34 57//34
f 59//34 61//34 63//34
f 13//34 7//34 9//34
f 13//34 19//34 21//34
f 31//34 23//34 25//34
f 63//34 55//34 57//34
f 37//34 39//34 41//34
f 63//34 3//34 5//34
f 125//35 93//35 124//35
f 41//34 45//34 37//34
f 13//34 15//34 17//34
f 31//34 13//34 23//34
f 47//34 31//34 33//34
f 53//34 63//34 7//34
f 26//36 24//36 77//36
f 47//34 53//34 31//34
f 7//34 13//34 53//34
f 54//37 52//37 91//37
f 10//38 8//38 69//38
f 32//39 30//39 80//39
f 94//40 60//40 93//40
f 38//41 36//41 83//41
f 72//42 16//42 71//42
f 2//43 64//43 65//43
f 86//44 44//44 85//44
f 22//45 20//45 75//45
f 50//46 48//46 89//46
f 67//47 6//47 66//47
f 28//48 26//48 78//48
f 56//49 54//49 92//49
f 70//50 12//50 69//50
f 81//51 34//51 80//51
f 62//52 60//52 95//52
f 40//53 38//53 84//53
f 66//54 4//54 65//54
f 18//55 16//55 73//55
f 46//56 44//56 87//56
f 76//57 24//57 75//57
f 90//58 52//58 89//58
f 68//59 8//59 67//59
f 30//60 28//60 79//60
f 93//61 58//61 92//61
f 36//62 34//62 82//62
f 14//63 12//63 71//63
f 96//64 64//64 95//64
f 85//65 42//65 84//65
f 20//66 18//66 74//66
f 159//67 127//67 158//67
f 82//68 81//68 114//68
f 71//69 70//69 103//69
f 91//70 90//70 123//70
f 69//71 68//71 101//71
f 80//72 79//72 112//72
f 121//73 89//73 120//73
f 67//74 66//74 99//74
f 78//75 77//75 110//75
f 87//76 86//76 119//76
f 108//77 76//77 107//77
f 96//78 95//78 128//78
f 117//79 85//79 116//79
f 74//80 73//80 106//80
f 94//81 93//81 126//81
f 115//82 83//82 114//82
f 104//83 72//83 103//83
f 92//84 91//84 124//84
f 102//85 70//85 101//85
f 113//86 81//86 112//86
f 90//87 89//87 122//87
f 68//88 67//88 100//88
f 111//89 79//89 110//89
f 120//90 88//90 119//90
f 66//91 65//91 98//91
f 77//92 76//92 109//92
f 97//93 65//93 128//93
f 118//94 86//94 117//94
f 107//95 75//95 106//95
f 95//96 94//96 127//96
f 116//97 84//97 115//97
f 73//98 72//98 105//98
f 116//99 115//99 148//99
f 105//100 104//100 137//100
f 125//101 124//101 157//101
f 146//102 114//102 145//102
f 103//103 102//103 135//103
f 123//104 122//104 155//104
f 101//105 100//105 133//105
f 144//106 112//106 143//106
f 121//107 120//107 153//107
f 99//108 98//108 131//108
f 142//109 110//109 141//109
f 119//110 118//110 151//110
f 108//111 107//111 140//111
f 128//112 127//112 160//112
f 117//113 116//113 149//113
f 138//114 106//114 137//114
f 158//115 126//115 157//115
f 115//116 114//116 147//116
f 104//117 103//117 136//117
f 156//118 124//118 155//118
f 134//119 102//119 133//119
f 113//120 112//120 145//120
f 154//121 122//121 153//121
f 132//122 100//122 131//122
f 111//123 110//123 143//123
f 120//124 119//124 152//124
f 130//125 98//125 129//125
f 109//126 108//126 141//126
f 97//127 128//127 129//127
f 118//128 117//128 150//128
f 139//129 107//129 138//129
